<svg enable-background="new 0 0 128 128" viewBox="0 0 128 128" xmlns="http://www.w3.org/2000/svg" xmlns:xlink="http://www.w3.org/1999/xlink"><linearGradient id="a" gradientUnits="userSpaceOnUse" x1="48.7009" x2="26.0025" y1="75.4835" y2="77.0858"><stop offset="0" stop-color="#80d3f9" stop-opacity=".0283"/><stop offset="1" stop-color="#54b7e3"/></linearGradient><linearGradient id="b" gradientUnits="userSpaceOnUse" x1="88.2203" x2="100.0684" y1="79.5886" y2="79.7731"><stop offset=".2083" stop-color="#80d3f9" stop-opacity=".0283"/><stop offset="1" stop-color="#54b7e3"/></linearGradient><linearGradient id="c" gradientUnits="userSpaceOnUse" x1="63.854" x2="63.854" y1="71.2793" y2="93.5277"><stop offset="0" stop-color="#eeb68e"/><stop offset="1" stop-color="#f5cea7"/></linearGradient><radialGradient id="d" cx="57.4991" cy="74.2838" gradientTransform="matrix(.9741 .2262 -.1465 .6308 12.3731 14.4164)" gradientUnits="userSpaceOnUse" r="40.3925"><stop offset=".001342147" stop-color="#c48c63"/><stop offset="1" stop-color="#eeb68e"/></radialGradient><linearGradient id="e"><stop offset="0" stop-color="#fff"/><stop offset="1" stop-color="#fbfeff" stop-opacity="0"/></linearGradient><linearGradient id="f" gradientUnits="userSpaceOnUse" x1="79.3083" x2="75.2585" xlink:href="#e" y1="56.9405" y2="55.8501"/><linearGradient id="g"><stop offset="0" stop-color="#6d4c41"/><stop offset=".9985" stop-color="#3d3832"/></linearGradient><radialGradient id="h" cx="86.0597" cy="82.9066" gradientTransform="matrix(1 0 0 .9699 0 3.7508)" gradientUnits="userSpaceOnUse" r="5.6683" xlink:href="#g"/><radialGradient id="i" cx="70.2938" cy="81.5745" gradientTransform="matrix(1 0 0 .9699 0 3.7508)" gradientUnits="userSpaceOnUse" r="5.6683" xlink:href="#g"/><radialGradient id="j" cx="60.7806" cy="102.5771" gradientTransform="matrix(1 0 0 .9699 0 3.7508)" gradientUnits="userSpaceOnUse" r="5.6683" xlink:href="#g"/><radialGradient id="k" cx="74.4287" cy="101.8962" gradientTransform="matrix(1 0 0 .9699 0 3.7508)" gradientUnits="userSpaceOnUse" r="5.6683" xlink:href="#g"/><radialGradient id="l" cx="73.9406" cy="104.4522" gradientTransform="matrix(1 0 0 .9699 0 3.7508)" gradientUnits="userSpaceOnUse" r="5.638"><stop offset=".5279" stop-color="#f5cea7" stop-opacity="0"/><stop offset="1" stop-color="#f5cea7"/></radialGradient><linearGradient id="m"><stop offset=".5669" stop-color="#f5cea7" stop-opacity="0"/><stop offset="1" stop-color="#f5cea7"/></linearGradient><radialGradient id="n" cx="69.4279" cy="84.2387" gradientTransform="matrix(1 0 0 .9699 0 3.7508)" gradientUnits="userSpaceOnUse" r="5.6683" xlink:href="#m"/><radialGradient id="o" cx="85.1939" cy="85.5708" gradientTransform="matrix(1 0 0 .9699 0 3.7508)" gradientUnits="userSpaceOnUse" r="5.6683" xlink:href="#m"/><radialGradient id="p" cx="44.2905" cy="102.1174" gradientTransform="matrix(1 0 0 .9699 0 3.7508)" gradientUnits="userSpaceOnUse" r="5.2197" xlink:href="#g"/><radialGradient id="q" cx="43.3701" cy="104.2201" gradientTransform="matrix(1 0 0 .9179 0 9.179)" gradientUnits="userSpaceOnUse" r="5.5218" xlink:href="#m"/><radialGradient id="r" cx="83.4757" cy="108.5005" gradientTransform="matrix(1 0 0 .9699 0 3.7508)" gradientUnits="userSpaceOnUse" r="5.2197" xlink:href="#g"/><radialGradient id="s" cx="82.5553" cy="110.6033" gradientTransform="matrix(1 0 0 .9179 0 9.5115)" gradientUnits="userSpaceOnUse" r="5.5218" xlink:href="#m"/><radialGradient id="t" cx="59.5724" cy="105.6612" gradientTransform="matrix(1 0 0 .9179 0 9.2541)" gradientUnits="userSpaceOnUse" r="6.0382" xlink:href="#m"/><radialGradient id="u" cx="66.8581" cy="114.0965" gradientTransform="matrix(1 0 0 .9699 0 3.7508)" gradientUnits="userSpaceOnUse" r="5.6683" xlink:href="#g"/><radialGradient id="v" cx="65.6499" cy="117.1806" gradientTransform="matrix(1 0 0 .9284 0 8.6158)" gradientUnits="userSpaceOnUse" r="5.7853" xlink:href="#m"/><radialGradient id="w" cx="53.4067" cy="93.7173" gradientTransform="matrix(1 0 0 .9699 0 3.7508)" gradientUnits="userSpaceOnUse" r="5.6683" xlink:href="#g"/><radialGradient id="x" cx="52.1986" cy="96.8014" gradientTransform="matrix(1 0 0 .9179 0 8.7926)" gradientUnits="userSpaceOnUse" r="6.0382" xlink:href="#m"/><radialGradient id="y" cx="65.5372" cy="91.9597" gradientTransform="matrix(1 0 0 .9699 0 3.7508)" gradientUnits="userSpaceOnUse" r="5.6683" xlink:href="#g"/><radialGradient id="z" cx="64.329" cy="95.0439" gradientTransform="matrix(1 0 0 .9565 0 5.0322)" gradientUnits="userSpaceOnUse" r="5.725" xlink:href="#m"/><radialGradient id="A" cx="80.1016" cy="95.9071" gradientTransform="matrix(1 0 0 .9699 0 3.7508)" gradientUnits="userSpaceOnUse" r="5.6683" xlink:href="#g"/><radialGradient id="B" cx="78.7045" cy="98.3421" gradientTransform="matrix(1 0 0 .9179 0 8.8729)" gradientUnits="userSpaceOnUse" r="5.928"><stop offset=".5067" stop-color="#f5cea7" stop-opacity="0"/><stop offset="1" stop-color="#f5cea7"/></radialGradient><radialGradient id="C" cx="43.9588" cy="85.4165" gradientTransform="matrix(1 0 0 .9699 0 3.7508)" gradientUnits="userSpaceOnUse" r="5.6683" xlink:href="#g"/><radialGradient id="D" cx="42.7506" cy="88.5007" gradientTransform="matrix(1 0 0 .9681 0 3.9157)" gradientUnits="userSpaceOnUse" r="6.0382" xlink:href="#m"/><radialGradient id="E" cx="52.7615" cy="111.0396" gradientTransform="matrix(1 0 0 .9699 0 3.7508)" gradientUnits="userSpaceOnUse" r="5.6683" xlink:href="#g"/><radialGradient id="F" cx="51.5533" cy="114.4483" gradientTransform="matrix(1 0 0 .9702 0 3.7243)" gradientUnits="userSpaceOnUse" r="5.9848" xlink:href="#m"/><linearGradient id="G" gradientUnits="userSpaceOnUse" x1="92.3255" x2="78.9414" y1="83.1436" y2="81.3911"><stop offset="0" stop-color="#ffd6c4" stop-opacity=".0285"/><stop offset=".1313" stop-color="#ffd7c7"/><stop offset="1" stop-color="#ffd6c4" stop-opacity=".0285"/></linearGradient><radialGradient id="H" cx="78.6813" cy="34.1647" gradientTransform="matrix(.9938 -.111 .0435 .3893 -.9992 29.6013)" gradientUnits="userSpaceOnUse" r="13.2382"><stop offset=".4512" stop-color="#9575cd" stop-opacity="0"/><stop offset="1" stop-color="#9575cd"/></radialGradient><linearGradient id="I" gradientUnits="userSpaceOnUse" x1="89.1346" x2="85.2684" xlink:href="#e" y1="23.4051" y2="22.3642"/><radialGradient id="J" cx="85.3456" cy="13.8477" gradientUnits="userSpaceOnUse" r="8.6491"><stop offset=".3699" stop-color="#7a57b8"/><stop offset=".7346" stop-color="#9474cb"/><stop offset="1" stop-color="#9575cd" stop-opacity="0"/></radialGradient><path d="m63.94 25.32c-34.12.31-37.92 9.54-37.92 9.54s9.7 68.61 10.71 75.34 12.54 13.51 27.21 13.51 26.2-6.79 27.21-13.51c1.01-6.73 10.83-74.88 10.83-74.88s-3.92-9.69-38.04-10z" fill="url(#a)"/><path d="m76.89 43.12-12.95 80.58c14.67 0 26.2-6.79 27.21-13.51 1.01-6.73 10.83-74.88 10.83-74.88z" fill="url(#b)"/><path d="m30.3 64.3c2.61 18.75 5.83 41.86 6.43 45.89 1.01 6.73 12.54 13.51 27.21 13.51s26.2-6.79 27.21-13.51c.59-3.95 3.68-26.07 6.26-44.66 0 0-24.45-9.08-39.2-7.27-14.74 1.8-27.91 6.04-27.91 6.04z" fill="url(#c)"/><path d="m97.23 64.04c1.81 4.57-7.43 19.27-33.89 8.04-25.1-10.66-33.04-7.78-33.04-7.78 3.68-3.67 11.07-8.7 29.26-8.7 20.64 0 35.48 2.92 37.67 8.44z" fill="url(#d)"/><path d="m70.5 38.41c-2.3 8.03-8.97 29.65-8.97 29.65s2.94 2.3 7.83 2.31c5.33 0 6.17-2.09 6.17-2.09s6.55-21.27 8.78-29.18c0 0-2.12.37-7.41.33-5.3-.03-6.4-1.02-6.4-1.02z" fill="#9575cd"/><path d="m75.53 68.28s7.12-23.5 7.41-24.48c.67-2.24-2.24-2.77-5.68-3.7 0 0-8.89 30.27-8.5 30.28 5.59.16 6.77-2.1 6.77-2.1z" fill="url(#f)" opacity=".4"/><ellipse cx="84.93" cy="86.88" fill="url(#h)" rx="4.76" ry="4.61"/><ellipse cx="69.16" cy="85.58" fill="url(#i)" rx="4.76" ry="4.61"/><ellipse cx="59.65" cy="105.96" fill="url(#j)" rx="4.76" ry="4.61"/><ellipse cx="73.3" cy="105.3" fill="url(#k)" rx="4.76" ry="4.61"/><ellipse cx="73.3" cy="105.3" fill="url(#l)" rx="4.76" ry="4.61"/><ellipse cx="69.16" cy="85.58" fill="url(#n)" rx="4.76" ry="4.61"/><ellipse cx="84.93" cy="86.88" fill="url(#o)" rx="4.76" ry="4.61"/><ellipse cx="43.25" cy="105.3" fill="url(#p)" rx="4.38" ry="4.25"/><ellipse cx="43.25" cy="105.3" fill="url(#q)" rx="4.38" ry="4.25"/><ellipse cx="82.43" cy="111.49" fill="url(#r)" rx="4.38" ry="4.25"/><ellipse cx="82.43" cy="111.49" fill="url(#s)" rx="4.38" ry="4.25"/><path d="m54.85 105.96c0-2.55 1.94-4.46 4.56-4.61 2.61-.15 5.04 1.81 5.04 4.36s-1.64 5-4.85 4.87c-2.62-.12-4.75-2.08-4.75-4.62z" fill="url(#t)"/><ellipse cx="65.73" cy="117.13" fill="url(#u)" rx="4.76" ry="4.61"/><path d="m60.92 117.13c0-2.55 1.94-4.46 4.56-4.61 2.61-.15 5.04 1.81 5.04 4.36s-1.64 5-4.85 4.87c-2.61-.11-4.75-2.07-4.75-4.62z" fill="url(#v)"/><ellipse cx="52.27" cy="97.36" fill="url(#w)" rx="4.76" ry="4.61"/><path d="m47.47 97.36c0-2.55 1.94-4.46 4.56-4.61 2.61-.15 5.04 1.81 5.04 4.36s-1.64 5-4.85 4.87c-2.62-.11-4.75-2.07-4.75-4.62z" fill="url(#x)"/><ellipse cx="64.4" cy="95.66" fill="url(#y)" rx="4.76" ry="4.61"/><path d="m59.6 95.66c0-2.55 1.94-4.46 4.56-4.61 2.61-.15 5.04 1.81 5.04 4.36s-1.64 5-4.85 4.87c-2.62-.12-4.75-2.07-4.75-4.62z" fill="url(#z)"/><ellipse cx="78.97" cy="99.49" fill="url(#A)" rx="4.76" ry="4.61"/><path d="m74.17 99.49c0-2.55 1.94-4.46 4.56-4.61 2.61-.15 5.04 1.81 5.04 4.36s-1.64 5-4.85 4.87c-2.62-.12-4.75-2.07-4.75-4.62z" fill="url(#B)"/><ellipse cx="42.83" cy="89.31" fill="url(#C)" rx="4.76" ry="4.61"/><path d="m38.02 89.31c0-2.55 1.94-4.46 4.56-4.61 2.61-.15 5.04 1.81 5.04 4.36s-1.64 5-4.85 4.87c-2.61-.11-4.75-2.07-4.75-4.62z" fill="url(#D)"/><ellipse cx="51.63" cy="114.16" fill="url(#E)" rx="4.76" ry="4.61"/><path d="m46.83 114.17c0-2.55 1.94-4.46 4.56-4.61 2.61-.15 5.04 1.81 5.04 4.36s-1.64 5-4.85 4.87c-2.62-.12-4.75-2.08-4.75-4.62z" fill="url(#F)"/><path d="m98.37 44.17-7.97 61.12c-.72 6.86-2.84 9.77-8.61 12.79-3.27 1.71-6.99 2.58-6.88 2.54l4.49-74.44z" fill="url(#G)" opacity=".55"/><path d="m101.31 40.11c.16-.93.92-3.71.7-5.52 0 0-.53-2.45-2.29-1.76-6 2.34-21.34 10.43-35.72 10.76-14.86-.34-30.83-8.8-36.41-11.01-1.41-.56-1.6 2.01-1.6 2.01-.21 1.81.55 4.58.7 5.52.51 3.05-1.66 3.01-1.66 3.01s.35 3.34 6.35 2.73c1.1-.11 4.91-.39 8.19 2.02 1.8 1.32 3.05 3.08 7.32 2.83 1.14-.07 2.18-.68 3.28-1 1.77-.53 3.69-.48 5.44.13 1.63.57 3.08 1.6 4.71 2.15 1.14.38 2.38.54 3.68.54s2.55-.16 3.68-.54c1.63-.55 3.09-1.58 4.71-2.15 1.75-.61 3.67-.65 5.44-.13 1.1.33 2.14.94 3.28 1 4.27.25 5.52-1.51 7.32-2.83 3.28-2.41 7.09-2.13 8.19-2.02 6 .62 6.35-2.73 6.35-2.73s-2.17.03-1.66-3.01z" fill="#33ac71"/><path d="m63.92 23.35c-21.49 0-37.91 5.15-37.91 11.5s16.41 11.5 37.91 11.5 37.91-5.15 37.91-11.5-16.41-11.5-37.91-11.5zm12.84 15.29c-4.76 0-8.61-1.38-8.61-3.07 0-1.7 3.86-3.07 8.61-3.07 4.76 0 8.61 1.38 8.61 3.07 0 1.7-3.85 3.07-8.61 3.07z" fill="#72e6ac"/><path d="m68.15 35.57c.01-.42.27-.82.56-1.13.29-.32.64-.58 1.01-.8s.75-.39 1.14-.56c.39-.13.79-.28 1.19-.38 1.61-.42 3.24-.54 4.85-.52 1.61.04 3.24.22 4.83.7.79.23 1.57.56 2.29 1.04.35.25.7.52.95.89.26.35.42.82.31 1.22-.25-.79-1-1.04-1.68-1.26-.7-.21-1.45-.31-2.19-.4-1.49-.15-3.01-.18-4.54-.19-1.53.02-3.05-.01-4.55.1-.75.05-1.49.12-2.21.29-.36.07-.72.18-1.05.33-.34.15-.68.33-.91.67z" fill="#33ac71"/><path d="m87.82 4.7c-3.95-1.06-7.16.05-8.06 2.61 0 0-9.07 30.52-9.07 30.52s1.85.96 7.42.96c4.55 0 7.03-2.25 7.03-2.25s7.07-25 7.36-25.98c.67-2.24-1.24-4.93-4.68-5.86z" fill="#b39ddb"/><path d="m78.11 38.79c4.55 0 7.03-2.25 7.03-2.25s.41-1.46 1.04-3.69c-.17.14-1.82 1.36-6.94 1.59-5.34.24-7.36-.63-7.36-.63l-1.19 4.01c0 .01 1.84.97 7.42.97z" fill="url(#H)"/><path d="m92.61 9.27c-.02-.15-.04-.29-.08-.44-.17-.73-.57-1.44-1.17-2.08-.12-.13-.25-.25-.38-.37-.27-.24-.57-.47-.89-.68-.16-.1-.33-.2-.51-.3-.53-.28-1.12-.52-1.77-.69s-8.44 28.75-9.71 34.09c4.55 0 7.03-2.25 7.03-2.25s6.41-22.69 7.27-25.68c.04-.15.08-.26.09-.31.14-.42.17-.86.12-1.29z" fill="url(#I)" opacity=".4"/><path d="m81.31 7.64c.57-1.84 3.25-2.69 5.99-1.9s4.49 2.94 3.92 4.78-3.25 2.69-5.99 1.9-4.49-2.93-3.92-4.78z" fill="url(#J)"/></svg>